<?xml version="1.0" encoding="UTF-8" standalone="no"?>
<!DOCTYPE svg PUBLIC "-//W3C//DTD SVG 1.1//EN" "http://www.w3.org/Graphics/SVG/1.1/DTD/svg11.dtd">
<svg xmlns="http://www.w3.org/2000/svg" version="1.1" viewBox="0 0 149 94">
<g stroke-width="2.00" fill="none" stroke-linecap="butt">
<path stroke="#f3c292" vector-effect="non-scaling-stroke" d="
  M 50.45 31.47
  L 47.81 31.48
  A 0.67 0.59 83.4 0 1 47.22 30.94
  L 46.02 25.20
  A 1.11 1.01 83.1 0 0 45.00 24.32
  L 36.56 24.50
  A 0.46 0.43 83.3 0 0 36.16 25.05
  L 39.08 39.56
  A 0.63 0.62 84.8 0 0 39.68 40.07
  L 62.60 40.26
  A 1.00 0.98 84.9 0 0 63.57 39.08
  L 60.82 24.71
  A 0.57 0.56 84.4 0 0 60.27 24.25
  L 50.32 24.25
  A 0.65 0.63 84.4 0 0 49.70 25.02
  L 50.85 30.95
  A 0.43 0.41 83.8 0 1 50.45 31.47"
/>
<path stroke="#e79093" vector-effect="non-scaling-stroke" d="
  M 96.44 31.52
  Q 100.06 31.91 103.69 31.72
  A 0.78 0.62 2.3 0 0 104.38 31.22
  L 105.07 27.71
  A 0.76 0.70 8.3 0 0 104.39 26.88
  Q 99.23 26.30 95.81 28.31
  Q 94.18 29.27 92.93 29.59
  A 1.32 0.99 3.0 0 0 92.17 30.10
  Q 91.03 31.99 93.25 31.75
  Q 95.90 31.47 96.44 31.52"
/>
<path stroke="#fede89" vector-effect="non-scaling-stroke" d="
  M 97.50 33.04
  Q 96.19 33.37 96.50 35.00
  Q 97.46 40.00 98.17 46.54
  Q 98.60 50.42 97.49 52.80
  Q 95.87 56.29 92.51 58.05
  Q 90.27 59.21 85.76 59.41
  Q 82.28 59.56 78.80 59.67
  A 1.37 1.22 -23.8 0 1 77.91 59.38
  Q 75.90 57.70 76.50 55.25
  Q 77.97 49.25 80.71 43.64
  A 1.14 1.14 13.2 0 0 79.69 42.00
  Q 60.75 41.90 41.28 42.00
  Q 41.20 42.00 39.74 41.87
  Q 37.93 41.71 38.05 43.49
  A 1.53 1.39 -0.9 0 0 39.52 44.78
  L 46.45 44.99
  A 1.39 1.16 65.3 0 1 47.31 45.40
  Q 48.36 46.50 47.31 47.60
  A 1.26 1.08 18.6 0 1 46.44 47.95
  L 36.66 47.99
  Q 34.40 48.00 35.23 50.08
  Q 35.84 51.61 38.25 51.00
  Q 39.94 50.57 46.50 51.20
  A 1.37 1.06 -12.5 0 1 47.35 51.60
  Q 48.35 52.72 47.31 53.84
  A 1.26 1.03 17.4 0 1 46.44 54.19
  L 38.32 54.31
  A 1.24 1.03 17.5 0 0 37.45 54.67
  Q 36.27 56.00 37.59 56.98
  A 1.61 1.08 -18.0 0 0 38.51 57.24
  Q 40.52 57.22 42.53 57.28
  Q 43.56 57.31 44.18 57.82
  Q 45.50 58.90 44.31 59.88
  Q 43.65 60.43 42.39 60.46
  Q 39.79 60.50 37.19 60.55
  Q 36.14 60.57 35.61 61.09
  Q 34.63 62.04 35.68 63.10
  A 1.27 1.13 -19.8 0 0 36.55 63.45
  L 47.41 63.49
  A 1.05 1.04 -9.3 0 1 48.40 64.19
  Q 50.12 69.32 53.75 71.65
  Q 57.41 73.99 62.07 72.99
  Q 67.78 71.77 69.96 65.62
  Q 69.98 65.57 70.26 64.22
  Q 70.56 62.78 72.09 63.54
  A 0.77 0.77 15.1 0 0 73.21 62.90
  Q 73.47 58.58 72.95 54.97
  Q 72.01 48.40 65.85 46.52
  Q 65.53 46.43 65.34 46.25
  Q 64.50 45.47 66.19 45.80
  Q 69.34 46.41 71.34 48.53
  Q 72.93 50.23 73.79 53.47
  Q 74.93 57.79 74.72 62.78
  A 0.69 0.68 -88.8 0 0 75.40 63.50
  L 89.75 63.46"
/>
<path stroke="#e79093" vector-effect="non-scaling-stroke" d="
  M 89.75 63.46
  Q 93.84 63.11 97.08 61.46
  A 0.38 0.38 71.1 0 1 97.62 61.73
  Q 98.85 68.23 102.66 71.19
  Q 106.59 74.25 111.81 72.97
  Q 117.12 71.68 119.39 65.67
  Q 120.27 63.35 119.94 61.03
  Q 119.42 57.37 119.38 57.03
  Q 118.72 50.99 112.06 49.44
  Q 108.94 48.71 106.25 48.74
  A 0.67 0.66 -8.1 0 1 105.61 48.27
  Q 105.29 47.18 104.92 46.11
  Q 104.53 45.01 103.56 43.73
  Q 101.29 40.73 100.28 37.12
  Q 100.25 37.00 100.03 34.85
  Q 99.82 32.82 97.50 33.04"
/>
<path stroke="#e56f1d" vector-effect="non-scaling-stroke" d="
  M 89.75 63.46
  Q 93.32 61.29 95.77 58.00
  Q 98.40 54.47 98.53 54.27
  Q 100.00 52.08 100.00 49.75
  Q 99.99 45.57 97.50 33.04"
/>
<path stroke="#e79093" vector-effect="non-scaling-stroke" d="
  M 72.06 36.94
  Q 69.30 36.87 66.14 34.55
  A 0.45 0.43 33.2 0 0 65.48 34.67
  Q 64.62 36.18 66.47 36.90
  A 1.32 1.25 -0.5 0 1 67.14 37.52
  Q 68.20 39.73 70.06 40.19
  Q 73.69 41.08 79.27 40.79
  Q 79.38 40.79 80.71 40.84
  Q 82.92 40.93 82.43 38.09
  A 1.33 1.32 -5.1 0 0 81.11 36.99
  Q 76.16 37.05 72.06 36.94"
/>
<path stroke="#e79093" vector-effect="non-scaling-stroke" d="
  M 30.46 49.58
  Q 29.88 47.48 27.61 47.92
  Q 26.61 48.12 26.02 48.87
  Q 24.81 50.41 27.25 51.02
  Q 29.10 51.48 30.22 50.43
  A 0.86 0.82 61.9 0 0 30.46 49.58"
/>
<path stroke="#e79093" vector-effect="non-scaling-stroke" d="
  M 32.2385 58.9791
  A 2.06 1.64 2.2 0 0 30.2430 57.2612
  A 2.06 1.64 2.2 0 0 28.1215 58.8209
  A 2.06 1.64 2.2 0 0 30.1170 60.5388
  A 2.06 1.64 2.2 0 0 32.2385 58.9791"
/>
<path stroke="#aeafae" vector-effect="non-scaling-stroke" d="
  M 25.94 86.20
  L 25.94 84.54
  A 0.65 0.48 -1.2 0 1 26.57 84.05
  L 30.37 83.95
  A 0.76 0.48 7.8 0 0 30.92 83.70
  Q 31.03 83.55 31.02 83.38
  A 0.71 0.55 -1.7 0 0 30.32 82.87
  L 25.44 82.86
  A 0.59 0.54 -89.5 0 0 24.90 83.44
  L 24.73 90.50
  A 1.04 0.67 -80.7 0 0 25.10 91.35
  Q 25.90 91.80 26.12 88.32
  A 1.00 0.98 9.8 0 1 27.38 87.44
  Q 29.49 88.03 30.35 87.43
  Q 30.92 87.02 30.19 86.96
  L 26.57 86.67
  A 0.68 0.45 3.1 0 1 25.94 86.20"
/>
<path stroke="#aeafae" vector-effect="non-scaling-stroke" d="
  M 35.44 89.81
  Q 38.25 89.62 39.73 91.40
  A 0.45 0.29 43.2 0 0 40.34 91.51
  Q 40.46 91.30 40.31 90.94
  Q 38.82 87.33 37.24 83.74
  Q 36.19 81.34 35.24 83.78
  Q 33.91 87.19 32.29 90.52
  Q 31.90 91.32 32.46 91.58
  A 0.61 0.45 -64.5 0 0 33.12 91.23
  Q 33.75 89.93 35.44 89.81"
/>
<path stroke="#aeafae" vector-effect="non-scaling-stroke" d="
  M 43.69 90.34
  Q 42.97 89.78 42.22 90.16
  A 0.37 0.34 50.1 0 0 42.19 90.76
  Q 44.69 92.74 47.28 90.98
  A 1.16 1.14 -12.3 0 0 47.79 90.20
  Q 48.40 86.78 44.53 86.27
  Q 42.21 85.97 43.44 84.19
  Q 44.78 82.24 46.50 84.25
  Q 47.07 84.91 47.45 84.64
  A 0.58 0.46 51.3 0 0 47.44 83.86
  Q 46.27 82.56 44.66 82.71
  Q 43.27 82.84 42.38 84.10
  Q 40.77 86.39 44.18 87.57
  Q 49.80 89.50 44.56 90.59
  A 1.20 0.88 52.4 0 1 43.69 90.34"
/>
<path stroke="#aeafae" vector-effect="non-scaling-stroke" d="
  M 53.81 84.02
  L 55.00 83.99
  A 1.43 0.91 12.5 0 0 55.88 83.67
  Q 56.93 82.65 54.75 82.70
  Q 52.62 82.75 50.51 82.88
  Q 47.87 83.05 49.78 83.83
  Q 50.16 83.98 50.74 83.90
  Q 52.53 83.67 52.00 85.75
  Q 51.63 87.20 52.28 91.00
  Q 52.41 91.76 52.77 91.70
  A 0.82 0.50 88.1 0 0 53.20 90.93
  L 53.30 84.57
  A 0.56 0.53 89.5 0 1 53.81 84.02"
/>
<path stroke="#fede89" vector-effect="non-scaling-stroke" d="
  M 65.81 83.69
  Q 64.17 82.35 60.55 82.97
  A 0.62 0.58 -5.3 0 0 60.04 83.55
  L 60.05 90.95
  A 0.56 0.55 2.9 0 0 60.55 91.50
  Q 62.38 91.71 64.13 91.37
  Q 66.32 90.94 67.32 89.25
  Q 69.04 86.32 65.81 83.69"
/>
<path stroke="#fede89" vector-effect="non-scaling-stroke" d="
  M 71.22 85.71
  Q 71.39 84.77 74.92 84.69
  A 1.18 1.17 7.4 0 0 76.02 83.85
  Q 76.40 82.54 74.88 82.83
  Q 74.10 82.99 73.59 82.97
  Q 71.76 82.91 69.94 83.12
  A 0.62 0.57 -4.0 0 0 69.40 83.69
  L 69.29 90.94
  A 0.55 0.49 1.7 0 0 69.82 91.44
  L 75.19 91.65
  A 0.69 0.58 7.4 0 0 75.86 91.22
  Q 76.32 89.53 73.41 90.12
  A 2.65 2.64 -31.2 0 1 71.24 89.59
  Q 70.12 88.69 71.64 88.17
  Q 72.08 88.02 72.88 88.05
  Q 73.94 88.10 74.97 87.83
  A 1.12 0.75 -4.4 0 0 75.69 87.26
  Q 75.81 86.89 75.56 86.60
  Q 75.31 86.32 74.72 86.30
  Q 73.27 86.25 71.82 86.20
  A 0.59 0.41 4.6 0 1 71.22 85.71"
/>
<path stroke="#fede89" vector-effect="non-scaling-stroke" d="
  M 79.40 89.46
  Q 78.72 87.36 79.11 85.17
  Q 79.25 84.35 79.13 83.82
  Q 78.68 81.94 77.54 83.35
  A 1.50 0.97 72.2 0 0 77.30 84.24
  L 77.57 90.93
  A 0.55 0.52 89.9 0 0 78.07 91.46
  Q 80.03 91.56 81.99 91.65
  Q 84.36 91.77 83.50 90.46
  A 1.09 0.93 -13.2 0 0 82.68 90.04
  L 80.06 89.96
  A 0.72 0.71 -7.4 0 1 79.40 89.46"
/>
<path stroke="#fede89" vector-effect="non-scaling-stroke" d="
  M 86.6357 83.6907
  A 0.91 0.91 0.0 0 0 85.7068 82.7999
  L 85.6068 82.8020
  A 0.91 0.91 0.0 0 0 84.7161 83.7309
  L 84.8643 90.8093
  A 0.91 0.91 0.0 0 0 85.7932 91.7001
  L 85.8932 91.6980
  A 0.91 0.91 0.0 0 0 86.7839 90.7691
  L 86.6357 83.6907"
/>
<path stroke="#fede89" vector-effect="non-scaling-stroke" d="
  M 99.57 88.87
  Q 99.52 88.71 99.89 88.34
  A 1.33 0.99 15.6 0 1 100.75 88.01
  L 103.18 87.97
  A 1.10 0.77 9.1 0 0 104.02 87.56
  Q 104.17 87.29 104.13 87.01
  A 0.85 0.64 2.4 0 0 103.45 86.45
  Q 102.57 86.29 100.75 86.25
  Q 98.95 86.21 99.90 85.11
  A 1.31 0.66 6.2 0 1 100.75 84.79
  L 103.51 84.60
  A 0.83 0.75 -81.2 0 0 104.20 84.04
  Q 104.68 82.64 102.82 82.86
  Q 101.90 82.96 101.16 82.91
  Q 99.78 82.82 98.44 83.08
  A 0.66 0.61 -5.6 0 0 97.90 83.69
  L 97.79 90.94
  A 0.52 0.50 0.5 0 0 98.31 91.45
  L 103.49 91.51
  A 0.80 0.60 5.3 0 0 104.23 91.06
  Q 104.52 89.97 101.17 90.03
  A 1.63 1.62 -8.8 0 1 99.57 88.87"
/>
<path stroke="#fede89" vector-effect="non-scaling-stroke" d="
  M 108.53 89.00
  Q 109.69 89.53 110.43 90.63
  Q 110.74 91.10 111.13 91.30
  Q 113.42 92.45 112.30 90.36
  Q 112.29 90.33 111.75 89.56
  Q 110.92 88.37 112.26 87.45
  A 1.36 0.98 -19.1 0 0 112.79 86.70
  Q 113.38 83.16 109.82 83.00
  Q 109.24 82.97 108.19 82.88
  Q 107.36 82.80 106.56 82.95
  A 0.74 0.73 -89.9 0 0 105.97 83.55
  Q 105.32 87.20 106.08 90.83
  A 1.25 0.93 -87.1 0 0 106.60 91.61
  Q 107.28 91.99 107.60 91.23
  Q 107.72 90.97 107.71 90.26
  Q 107.71 89.74 107.87 89.27
  A 0.49 0.46 21.4 0 1 108.53 89.00"
/>
<path stroke="#fede89" vector-effect="non-scaling-stroke" d="
  M 118.18 85.56
  Q 117.22 87.27 116.57 85.42
  Q 115.63 82.73 113.73 83.11
  A 0.35 0.33 65.5 0 0 113.55 83.65
  Q 116.02 87.06 116.73 91.19
  A 0.51 0.45 77.8 0 0 117.30 91.61
  Q 118.57 91.27 118.35 89.74
  A 1.56 0.61 73.3 0 1 118.43 88.79
  L 121.19 83.90
  A 0.62 0.49 -57.2 0 0 121.12 83.17
  Q 119.88 82.26 119.08 83.82
  Q 118.41 85.14 118.18 85.56"
/>
<path stroke="#fede89" vector-effect="non-scaling-stroke" d="
  M 91.99 88.07
  Q 91.14 86.60 90.25 84.00
  Q 89.65 82.26 88.38 83.18
  A 0.75 0.65 64.3 0 0 88.16 83.98
  Q 90.02 89.48 90.69 90.56
  Q 91.67 92.16 93.14 91.34
  A 1.49 1.09 -88.0 0 0 93.73 90.59
  Q 94.87 87.48 96.14 84.42
  Q 97.02 82.29 95.01 83.11
  A 1.34 0.94 -82.2 0 0 94.39 83.78
  L 92.48 88.05
  Q 92.26 88.55 91.99 88.07"
/>
<path stroke="#e79093" vector-effect="non-scaling-stroke" d="
  M 113.05 62.32
  A 4.07 4.07 0.0 0 0 108.98 58.25
  A 4.07 4.07 0.0 0 0 104.91 62.32
  A 4.07 4.07 0.0 0 0 108.98 66.39
  A 4.07 4.07 0.0 0 0 113.05 62.32"
/>
<path stroke="#fede89" vector-effect="non-scaling-stroke" d="
  M 57.03 63.66
  Q 54.94 63.69 56.42 65.04
  Q 59.98 68.27 63.01 64.49
  Q 63.75 63.56 62.48 63.58
  L 57.03 63.66"
/>
<path stroke="#aeafae" vector-effect="non-scaling-stroke" d="
  M 36.22 85.07
  Q 35.01 86.63 34.65 88.19
  A 0.44 0.43 -83.5 0 0 35.06 88.73
  L 37.52 88.72
  A 0.49 0.46 78.1 0 0 37.93 88.04
  L 36.71 85.15
  A 0.29 0.28 53.4 0 0 36.22 85.07"
/>
<path stroke="#fede89" vector-effect="non-scaling-stroke" d="
  M 64.27 85.01
  Q 62.19 83.72 61.86 86.14
  Q 61.27 90.55 63.73 89.90
  Q 65.33 89.48 65.85 88.09
  Q 66.49 86.38 64.27 85.01"
/>
<path stroke="#fede89" vector-effect="non-scaling-stroke" d="
  M 110.06 84.94
  Q 107.75 84.12 107.78 86.18
  A 0.76 0.72 -80.8 0 0 108.26 86.89
  Q 109.35 87.29 110.44 86.69
  Q 112.22 85.70 110.06 84.94"
/>
</g>
<path fill="#ffffff" d="
  M 0.00 0.00
  L 149.00 0.00
  L 149.00 94.00
  L 0.00 94.00
  L 0.00 0.00
  Z
  M 50.45 31.47
  L 47.81 31.48
  A 0.67 0.59 83.4 0 1 47.22 30.94
  L 46.02 25.20
  A 1.11 1.01 83.1 0 0 45.00 24.32
  L 36.56 24.50
  A 0.46 0.43 83.3 0 0 36.16 25.05
  L 39.08 39.56
  A 0.63 0.62 84.8 0 0 39.68 40.07
  L 62.60 40.26
  A 1.00 0.98 84.9 0 0 63.57 39.08
  L 60.82 24.71
  A 0.57 0.56 84.4 0 0 60.27 24.25
  L 50.32 24.25
  A 0.65 0.63 84.4 0 0 49.70 25.02
  L 50.85 30.95
  A 0.43 0.41 83.8 0 1 50.45 31.47
  Z
  M 96.44 31.52
  Q 100.06 31.91 103.69 31.72
  A 0.78 0.62 2.3 0 0 104.38 31.22
  L 105.07 27.71
  A 0.76 0.70 8.3 0 0 104.39 26.88
  Q 99.23 26.30 95.81 28.31
  Q 94.18 29.27 92.93 29.59
  A 1.32 0.99 3.0 0 0 92.17 30.10
  Q 91.03 31.99 93.25 31.75
  Q 95.90 31.47 96.44 31.52
  Z
  M 97.50 33.04
  Q 96.19 33.37 96.50 35.00
  Q 97.46 40.00 98.17 46.54
  Q 98.60 50.42 97.49 52.80
  Q 95.87 56.29 92.51 58.05
  Q 90.27 59.21 85.76 59.41
  Q 82.28 59.56 78.80 59.67
  A 1.37 1.22 -23.8 0 1 77.91 59.38
  Q 75.90 57.70 76.50 55.25
  Q 77.97 49.25 80.71 43.64
  A 1.14 1.14 13.2 0 0 79.69 42.00
  Q 60.75 41.90 41.28 42.00
  Q 41.20 42.00 39.74 41.87
  Q 37.93 41.71 38.05 43.49
  A 1.53 1.39 -0.9 0 0 39.52 44.78
  L 46.45 44.99
  A 1.39 1.16 65.3 0 1 47.31 45.40
  Q 48.36 46.50 47.31 47.60
  A 1.26 1.08 18.6 0 1 46.44 47.95
  L 36.66 47.99
  Q 34.40 48.00 35.23 50.08
  Q 35.84 51.61 38.25 51.00
  Q 39.94 50.57 46.50 51.20
  A 1.37 1.06 -12.5 0 1 47.35 51.60
  Q 48.35 52.72 47.31 53.84
  A 1.26 1.03 17.4 0 1 46.44 54.19
  L 38.32 54.31
  A 1.24 1.03 17.5 0 0 37.45 54.67
  Q 36.27 56.00 37.59 56.98
  A 1.61 1.08 -18.0 0 0 38.51 57.24
  Q 40.52 57.22 42.53 57.28
  Q 43.56 57.31 44.18 57.82
  Q 45.50 58.90 44.31 59.88
  Q 43.65 60.43 42.39 60.46
  Q 39.79 60.50 37.19 60.55
  Q 36.14 60.57 35.61 61.09
  Q 34.63 62.04 35.68 63.10
  A 1.27 1.13 -19.8 0 0 36.55 63.45
  L 47.41 63.49
  A 1.05 1.04 -9.3 0 1 48.40 64.19
  Q 50.12 69.32 53.75 71.65
  Q 57.41 73.99 62.07 72.99
  Q 67.78 71.77 69.96 65.62
  Q 69.98 65.57 70.26 64.22
  Q 70.56 62.78 72.09 63.54
  A 0.77 0.77 15.1 0 0 73.21 62.90
  Q 73.47 58.58 72.95 54.97
  Q 72.01 48.40 65.85 46.52
  Q 65.53 46.43 65.34 46.25
  Q 64.50 45.47 66.19 45.80
  Q 69.34 46.41 71.34 48.53
  Q 72.93 50.23 73.79 53.47
  Q 74.93 57.79 74.72 62.78
  A 0.69 0.68 -88.8 0 0 75.40 63.50
  L 89.75 63.46
  Q 93.84 63.11 97.08 61.46
  A 0.38 0.38 71.1 0 1 97.62 61.73
  Q 98.85 68.23 102.66 71.19
  Q 106.59 74.25 111.81 72.97
  Q 117.12 71.68 119.39 65.67
  Q 120.27 63.35 119.94 61.03
  Q 119.42 57.37 119.38 57.03
  Q 118.72 50.99 112.06 49.44
  Q 108.94 48.71 106.25 48.74
  A 0.67 0.66 -8.1 0 1 105.61 48.27
  Q 105.29 47.18 104.92 46.11
  Q 104.53 45.01 103.56 43.73
  Q 101.29 40.73 100.28 37.12
  Q 100.25 37.00 100.03 34.85
  Q 99.82 32.82 97.50 33.04
  Z
  M 72.06 36.94
  Q 69.30 36.87 66.14 34.55
  A 0.45 0.43 33.2 0 0 65.48 34.67
  Q 64.62 36.18 66.47 36.90
  A 1.32 1.25 -0.5 0 1 67.14 37.52
  Q 68.20 39.73 70.06 40.19
  Q 73.69 41.08 79.27 40.79
  Q 79.38 40.79 80.71 40.84
  Q 82.92 40.93 82.43 38.09
  A 1.33 1.32 -5.1 0 0 81.11 36.99
  Q 76.16 37.05 72.06 36.94
  Z
  M 30.46 49.58
  Q 29.88 47.48 27.61 47.92
  Q 26.61 48.12 26.02 48.87
  Q 24.81 50.41 27.25 51.02
  Q 29.10 51.48 30.22 50.43
  A 0.86 0.82 61.9 0 0 30.46 49.58
  Z
  M 32.2385 58.9791
  A 2.06 1.64 2.2 0 0 30.2430 57.2612
  A 2.06 1.64 2.2 0 0 28.1215 58.8209
  A 2.06 1.64 2.2 0 0 30.1170 60.5388
  A 2.06 1.64 2.2 0 0 32.2385 58.9791
  Z
  M 25.94 86.20
  L 25.94 84.54
  A 0.65 0.48 -1.2 0 1 26.57 84.05
  L 30.37 83.95
  A 0.76 0.48 7.8 0 0 30.92 83.70
  Q 31.03 83.55 31.02 83.38
  A 0.71 0.55 -1.7 0 0 30.32 82.87
  L 25.44 82.86
  A 0.59 0.54 -89.5 0 0 24.90 83.44
  L 24.73 90.50
  A 1.04 0.67 -80.7 0 0 25.10 91.35
  Q 25.90 91.80 26.12 88.32
  A 1.00 0.98 9.8 0 1 27.38 87.44
  Q 29.49 88.03 30.35 87.43
  Q 30.92 87.02 30.19 86.96
  L 26.57 86.67
  A 0.68 0.45 3.1 0 1 25.94 86.20
  Z
  M 35.44 89.81
  Q 38.25 89.62 39.73 91.40
  A 0.45 0.29 43.2 0 0 40.34 91.51
  Q 40.46 91.30 40.31 90.94
  Q 38.82 87.33 37.24 83.74
  Q 36.19 81.34 35.24 83.78
  Q 33.91 87.19 32.29 90.52
  Q 31.90 91.32 32.46 91.58
  A 0.61 0.45 -64.5 0 0 33.12 91.23
  Q 33.75 89.93 35.44 89.81
  Z
  M 43.69 90.34
  Q 42.97 89.78 42.22 90.16
  A 0.37 0.34 50.1 0 0 42.19 90.76
  Q 44.69 92.74 47.28 90.98
  A 1.16 1.14 -12.3 0 0 47.79 90.20
  Q 48.40 86.78 44.53 86.27
  Q 42.21 85.97 43.44 84.19
  Q 44.78 82.24 46.50 84.25
  Q 47.07 84.91 47.45 84.64
  A 0.58 0.46 51.3 0 0 47.44 83.86
  Q 46.27 82.56 44.66 82.71
  Q 43.27 82.84 42.38 84.10
  Q 40.77 86.39 44.18 87.57
  Q 49.80 89.50 44.56 90.59
  A 1.20 0.88 52.4 0 1 43.69 90.34
  Z
  M 53.81 84.02
  L 55.00 83.99
  A 1.43 0.91 12.5 0 0 55.88 83.67
  Q 56.93 82.65 54.75 82.70
  Q 52.62 82.75 50.51 82.88
  Q 47.87 83.05 49.78 83.83
  Q 50.16 83.98 50.74 83.90
  Q 52.53 83.67 52.00 85.75
  Q 51.63 87.20 52.28 91.00
  Q 52.41 91.76 52.77 91.70
  A 0.82 0.50 88.1 0 0 53.20 90.93
  L 53.30 84.57
  A 0.56 0.53 89.5 0 1 53.81 84.02
  Z
  M 65.81 83.69
  Q 64.17 82.35 60.55 82.97
  A 0.62 0.58 -5.3 0 0 60.04 83.55
  L 60.05 90.95
  A 0.56 0.55 2.9 0 0 60.55 91.50
  Q 62.38 91.71 64.13 91.37
  Q 66.32 90.94 67.32 89.25
  Q 69.04 86.32 65.81 83.69
  Z
  M 71.22 85.71
  Q 71.39 84.77 74.92 84.69
  A 1.18 1.17 7.4 0 0 76.02 83.85
  Q 76.40 82.54 74.88 82.83
  Q 74.10 82.99 73.59 82.97
  Q 71.76 82.91 69.94 83.12
  A 0.62 0.57 -4.0 0 0 69.40 83.69
  L 69.29 90.94
  A 0.55 0.49 1.7 0 0 69.82 91.44
  L 75.19 91.65
  A 0.69 0.58 7.4 0 0 75.86 91.22
  Q 76.32 89.53 73.41 90.12
  A 2.65 2.64 -31.2 0 1 71.24 89.59
  Q 70.12 88.69 71.64 88.17
  Q 72.08 88.02 72.88 88.05
  Q 73.94 88.10 74.97 87.83
  A 1.12 0.75 -4.4 0 0 75.69 87.26
  Q 75.81 86.89 75.56 86.60
  Q 75.31 86.32 74.72 86.30
  Q 73.27 86.25 71.82 86.20
  A 0.59 0.41 4.6 0 1 71.22 85.71
  Z
  M 79.40 89.46
  Q 78.72 87.36 79.11 85.17
  Q 79.25 84.35 79.13 83.82
  Q 78.68 81.94 77.54 83.35
  A 1.50 0.97 72.2 0 0 77.30 84.24
  L 77.57 90.93
  A 0.55 0.52 89.9 0 0 78.07 91.46
  Q 80.03 91.56 81.99 91.65
  Q 84.36 91.77 83.50 90.46
  A 1.09 0.93 -13.2 0 0 82.68 90.04
  L 80.06 89.96
  A 0.72 0.71 -7.4 0 1 79.40 89.46
  Z
  M 86.6357 83.6907
  A 0.91 0.91 0.0 0 0 85.7068 82.7999
  L 85.6068 82.8020
  A 0.91 0.91 0.0 0 0 84.7161 83.7309
  L 84.8643 90.8093
  A 0.91 0.91 0.0 0 0 85.7932 91.7001
  L 85.8932 91.6980
  A 0.91 0.91 0.0 0 0 86.7839 90.7691
  L 86.6357 83.6907
  Z
  M 99.57 88.87
  Q 99.52 88.71 99.89 88.34
  A 1.33 0.99 15.6 0 1 100.75 88.01
  L 103.18 87.97
  A 1.10 0.77 9.1 0 0 104.02 87.56
  Q 104.17 87.29 104.13 87.01
  A 0.85 0.64 2.4 0 0 103.45 86.45
  Q 102.57 86.29 100.75 86.25
  Q 98.95 86.21 99.90 85.11
  A 1.31 0.66 6.2 0 1 100.75 84.79
  L 103.51 84.60
  A 0.83 0.75 -81.2 0 0 104.20 84.04
  Q 104.68 82.64 102.82 82.86
  Q 101.90 82.96 101.16 82.91
  Q 99.78 82.82 98.44 83.08
  A 0.66 0.61 -5.6 0 0 97.90 83.69
  L 97.79 90.94
  A 0.52 0.50 0.5 0 0 98.31 91.45
  L 103.49 91.51
  A 0.80 0.60 5.3 0 0 104.23 91.06
  Q 104.52 89.97 101.17 90.03
  A 1.63 1.62 -8.8 0 1 99.57 88.87
  Z
  M 108.53 89.00
  Q 109.69 89.53 110.43 90.63
  Q 110.74 91.10 111.13 91.30
  Q 113.42 92.45 112.30 90.36
  Q 112.29 90.33 111.75 89.56
  Q 110.92 88.37 112.26 87.45
  A 1.36 0.98 -19.1 0 0 112.79 86.70
  Q 113.38 83.16 109.82 83.00
  Q 109.24 82.97 108.19 82.88
  Q 107.36 82.80 106.56 82.95
  A 0.74 0.73 -89.9 0 0 105.97 83.55
  Q 105.32 87.20 106.08 90.83
  A 1.25 0.93 -87.1 0 0 106.60 91.61
  Q 107.28 91.99 107.60 91.23
  Q 107.72 90.97 107.71 90.26
  Q 107.71 89.74 107.87 89.27
  A 0.49 0.46 21.4 0 1 108.53 89.00
  Z
  M 118.18 85.56
  Q 117.22 87.27 116.57 85.42
  Q 115.63 82.73 113.73 83.11
  A 0.35 0.33 65.5 0 0 113.55 83.65
  Q 116.02 87.06 116.73 91.19
  A 0.51 0.45 77.8 0 0 117.30 91.61
  Q 118.57 91.27 118.35 89.74
  A 1.56 0.61 73.3 0 1 118.43 88.79
  L 121.19 83.90
  A 0.62 0.49 -57.2 0 0 121.12 83.17
  Q 119.88 82.26 119.08 83.82
  Q 118.41 85.14 118.18 85.56
  Z
  M 91.99 88.07
  Q 91.14 86.60 90.25 84.00
  Q 89.65 82.26 88.38 83.18
  A 0.75 0.65 64.3 0 0 88.16 83.98
  Q 90.02 89.48 90.69 90.56
  Q 91.67 92.16 93.14 91.34
  A 1.49 1.09 -88.0 0 0 93.73 90.59
  Q 94.87 87.48 96.14 84.42
  Q 97.02 82.29 95.01 83.11
  A 1.34 0.94 -82.2 0 0 94.39 83.78
  L 92.48 88.05
  Q 92.26 88.55 91.99 88.07
  Z"
/>
<path fill="#e78524" d="
  M 50.85 30.95
  L 49.70 25.02
  A 0.65 0.63 84.4 0 1 50.32 24.25
  L 60.27 24.25
  A 0.57 0.56 84.4 0 1 60.82 24.71
  L 63.57 39.08
  A 1.00 0.98 84.9 0 1 62.60 40.26
  L 39.68 40.07
  A 0.63 0.62 84.8 0 1 39.08 39.56
  L 36.16 25.05
  A 0.46 0.43 83.3 0 1 36.56 24.50
  L 45.00 24.32
  A 1.11 1.01 83.1 0 1 46.02 25.20
  L 47.22 30.94
  A 0.67 0.59 83.4 0 0 47.81 31.48
  L 50.45 31.47
  A 0.43 0.41 83.8 0 0 50.85 30.95
  Z"
/>
<path fill="#ce2127" d="
  M 96.44 31.52
  Q 95.90 31.47 93.25 31.75
  Q 91.03 31.99 92.17 30.10
  A 1.32 0.99 3.0 0 1 92.93 29.59
  Q 94.18 29.27 95.81 28.31
  Q 99.23 26.30 104.39 26.88
  A 0.76 0.70 8.3 0 1 105.07 27.71
  L 104.38 31.22
  A 0.78 0.62 2.3 0 1 103.69 31.72
  Q 100.06 31.91 96.44 31.52
  Z"
/>
<path fill="#ce2127" d="
  M 89.75 63.46
  Q 93.32 61.29 95.77 58.00
  Q 98.40 54.47 98.53 54.27
  Q 100.00 52.08 100.00 49.75
  Q 99.99 45.57 97.50 33.04
  Q 99.82 32.82 100.03 34.85
  Q 100.25 37.00 100.28 37.12
  Q 101.29 40.73 103.56 43.73
  Q 104.53 45.01 104.92 46.11
  Q 105.29 47.18 105.61 48.27
  A 0.67 0.66 -8.1 0 0 106.25 48.74
  Q 108.94 48.71 112.06 49.44
  Q 118.72 50.99 119.38 57.03
  Q 119.42 57.37 119.94 61.03
  Q 120.27 63.35 119.39 65.67
  Q 117.12 71.68 111.81 72.97
  Q 106.59 74.25 102.66 71.19
  Q 98.85 68.23 97.62 61.73
  A 0.38 0.38 71.1 0 0 97.08 61.46
  Q 93.84 63.11 89.75 63.46
  Z
  M 113.05 62.32
  A 4.07 4.07 0.0 0 0 108.98 58.25
  A 4.07 4.07 0.0 0 0 104.91 62.32
  A 4.07 4.07 0.0 0 0 108.98 66.39
  A 4.07 4.07 0.0 0 0 113.05 62.32
  Z"
/>
<path fill="#fcbc12" d="
  M 97.50 33.04
  Q 99.99 45.57 100.00 49.75
  Q 100.00 52.08 98.53 54.27
  Q 98.40 54.47 95.77 58.00
  Q 93.32 61.29 89.75 63.46
  L 75.40 63.50
  A 0.69 0.68 -88.8 0 1 74.72 62.78
  Q 74.93 57.79 73.79 53.47
  Q 72.93 50.23 71.34 48.53
  Q 69.34 46.41 66.19 45.80
  Q 64.50 45.47 65.34 46.25
  Q 65.53 46.43 65.85 46.52
  Q 72.01 48.40 72.95 54.97
  Q 73.47 58.58 73.21 62.90
  A 0.77 0.77 15.1 0 1 72.09 63.54
  Q 70.56 62.78 70.26 64.22
  Q 69.98 65.57 69.96 65.62
  Q 67.78 71.77 62.07 72.99
  Q 57.41 73.99 53.75 71.65
  Q 50.12 69.32 48.40 64.19
  A 1.05 1.04 -9.3 0 0 47.41 63.49
  L 36.55 63.45
  A 1.27 1.13 -19.8 0 1 35.68 63.10
  Q 34.63 62.04 35.61 61.09
  Q 36.14 60.57 37.19 60.55
  Q 39.79 60.50 42.39 60.46
  Q 43.65 60.43 44.31 59.88
  Q 45.50 58.90 44.18 57.82
  Q 43.56 57.31 42.53 57.28
  Q 40.52 57.22 38.51 57.24
  A 1.61 1.08 -18.0 0 1 37.59 56.98
  Q 36.27 56.00 37.45 54.67
  A 1.24 1.03 17.5 0 1 38.32 54.31
  L 46.44 54.19
  A 1.26 1.03 17.4 0 0 47.31 53.84
  Q 48.35 52.72 47.35 51.60
  A 1.37 1.06 -12.5 0 0 46.50 51.20
  Q 39.94 50.57 38.25 51.00
  Q 35.84 51.61 35.23 50.08
  Q 34.40 48.00 36.66 47.99
  L 46.44 47.95
  A 1.26 1.08 18.6 0 0 47.31 47.60
  Q 48.36 46.50 47.31 45.40
  A 1.39 1.16 65.3 0 0 46.45 44.99
  L 39.52 44.78
  A 1.53 1.39 -0.9 0 1 38.05 43.49
  Q 37.93 41.71 39.74 41.87
  Q 41.20 42.00 41.28 42.00
  Q 60.75 41.90 79.69 42.00
  A 1.14 1.14 13.2 0 1 80.71 43.64
  Q 77.97 49.25 76.50 55.25
  Q 75.90 57.70 77.91 59.38
  A 1.37 1.22 -23.8 0 0 78.80 59.67
  Q 82.28 59.56 85.76 59.41
  Q 90.27 59.21 92.51 58.05
  Q 95.87 56.29 97.49 52.80
  Q 98.60 50.42 98.17 46.54
  Q 97.46 40.00 96.50 35.00
  Q 96.19 33.37 97.50 33.04
  Z
  M 57.03 63.66
  Q 54.94 63.69 56.42 65.04
  Q 59.98 68.27 63.01 64.49
  Q 63.75 63.56 62.48 63.58
  L 57.03 63.66
  Z"
/>
<path fill="#ce2127" d="
  M 72.06 36.94
  Q 76.16 37.05 81.11 36.99
  A 1.33 1.32 -5.1 0 1 82.43 38.09
  Q 82.92 40.93 80.71 40.84
  Q 79.38 40.79 79.27 40.79
  Q 73.69 41.08 70.06 40.19
  Q 68.20 39.73 67.14 37.52
  A 1.32 1.25 -0.5 0 0 66.47 36.90
  Q 64.62 36.18 65.48 34.67
  A 0.45 0.43 33.2 0 1 66.14 34.55
  Q 69.30 36.87 72.06 36.94
  Z"
/>
<path fill="#ce2127" d="
  M 30.22 50.43
  Q 29.10 51.48 27.25 51.02
  Q 24.81 50.41 26.02 48.87
  Q 26.61 48.12 27.61 47.92
  Q 29.88 47.48 30.46 49.58
  A 0.86 0.82 61.9 0 1 30.22 50.43
  Z"
/>
<ellipse fill="#ce2127" cx="0.00" cy="0.00" transform="translate(30.18,58.90) rotate(2.2)" rx="2.06" ry="1.64"/>
<circle fill="#ffffff" cx="108.98" cy="62.32" r="4.07"/>
<path fill="#ffffff" d="
  M 57.03 63.66
  L 62.48 63.58
  Q 63.75 63.56 63.01 64.49
  Q 59.98 68.27 56.42 65.04
  Q 54.94 63.69 57.03 63.66
  Z"
/>
<path fill="#5d5e5d" d="
  M 26.57 86.67
  L 30.19 86.96
  Q 30.92 87.02 30.35 87.43
  Q 29.49 88.03 27.38 87.44
  A 1.00 0.98 9.8 0 0 26.12 88.32
  Q 25.90 91.80 25.10 91.35
  A 1.04 0.67 -80.7 0 1 24.73 90.50
  L 24.90 83.44
  A 0.59 0.54 -89.5 0 1 25.44 82.86
  L 30.32 82.87
  A 0.71 0.55 -1.7 0 1 31.02 83.38
  Q 31.03 83.55 30.92 83.70
  A 0.76 0.48 7.8 0 1 30.37 83.95
  L 26.57 84.05
  A 0.65 0.48 -1.2 0 0 25.94 84.54
  L 25.94 86.20
  A 0.68 0.45 3.1 0 0 26.57 86.67
  Z"
/>
<path fill="#5d5e5d" d="
  M 35.44 89.81
  Q 33.75 89.93 33.12 91.23
  A 0.61 0.45 -64.5 0 1 32.46 91.58
  Q 31.90 91.32 32.29 90.52
  Q 33.91 87.19 35.24 83.78
  Q 36.19 81.34 37.24 83.74
  Q 38.82 87.33 40.31 90.94
  Q 40.46 91.30 40.34 91.51
  A 0.45 0.29 43.2 0 1 39.73 91.40
  Q 38.25 89.62 35.44 89.81
  Z
  M 36.22 85.07
  Q 35.01 86.63 34.65 88.19
  A 0.44 0.43 -83.5 0 0 35.06 88.73
  L 37.52 88.72
  A 0.49 0.46 78.1 0 0 37.93 88.04
  L 36.71 85.15
  A 0.29 0.28 53.4 0 0 36.22 85.07
  Z"
/>
<path fill="#5d5e5d" d="
  M 44.56 90.59
  Q 49.80 89.50 44.18 87.57
  Q 40.77 86.39 42.38 84.10
  Q 43.27 82.84 44.66 82.71
  Q 46.27 82.56 47.44 83.86
  A 0.58 0.46 51.3 0 1 47.45 84.64
  Q 47.07 84.91 46.50 84.25
  Q 44.78 82.24 43.44 84.19
  Q 42.21 85.97 44.53 86.27
  Q 48.40 86.78 47.79 90.20
  A 1.16 1.14 -12.3 0 1 47.28 90.98
  Q 44.69 92.74 42.19 90.76
  A 0.37 0.34 50.1 0 1 42.22 90.16
  Q 42.97 89.78 43.69 90.34
  A 1.20 0.88 52.4 0 0 44.56 90.59
  Z"
/>
<path fill="#5d5e5d" d="
  M 53.30 84.57
  L 53.20 90.93
  A 0.82 0.50 88.1 0 1 52.77 91.70
  Q 52.41 91.76 52.28 91.00
  Q 51.63 87.20 52.00 85.75
  Q 52.53 83.67 50.74 83.90
  Q 50.16 83.98 49.78 83.83
  Q 47.87 83.05 50.51 82.88
  Q 52.62 82.75 54.75 82.70
  Q 56.93 82.65 55.88 83.67
  A 1.43 0.91 12.5 0 1 55.00 83.99
  L 53.81 84.02
  A 0.56 0.53 89.5 0 0 53.30 84.57
  Z"
/>
<path fill="#fcbc12" d="
  M 65.81 83.69
  Q 69.04 86.32 67.32 89.25
  Q 66.32 90.94 64.13 91.37
  Q 62.38 91.71 60.55 91.50
  A 0.56 0.55 2.9 0 1 60.05 90.95
  L 60.04 83.55
  A 0.62 0.58 -5.3 0 1 60.55 82.97
  Q 64.17 82.35 65.81 83.69
  Z
  M 64.27 85.01
  Q 62.19 83.72 61.86 86.14
  Q 61.27 90.55 63.73 89.90
  Q 65.33 89.48 65.85 88.09
  Q 66.49 86.38 64.27 85.01
  Z"
/>
<path fill="#fcbc12" d="
  M 71.82 86.20
  Q 73.27 86.25 74.72 86.30
  Q 75.31 86.32 75.56 86.60
  Q 75.81 86.89 75.69 87.26
  A 1.12 0.75 -4.4 0 1 74.97 87.83
  Q 73.94 88.10 72.88 88.05
  Q 72.08 88.02 71.64 88.17
  Q 70.12 88.69 71.24 89.59
  A 2.65 2.64 -31.2 0 0 73.41 90.12
  Q 76.32 89.53 75.86 91.22
  A 0.69 0.58 7.4 0 1 75.19 91.65
  L 69.82 91.44
  A 0.55 0.49 1.7 0 1 69.29 90.94
  L 69.40 83.69
  A 0.62 0.57 -4.0 0 1 69.94 83.12
  Q 71.76 82.91 73.59 82.97
  Q 74.10 82.99 74.88 82.83
  Q 76.40 82.54 76.02 83.85
  A 1.18 1.17 7.4 0 1 74.92 84.69
  Q 71.39 84.77 71.22 85.71
  A 0.59 0.41 4.6 0 0 71.82 86.20
  Z"
/>
<path fill="#fcbc12" d="
  M 80.06 89.96
  L 82.68 90.04
  A 1.09 0.93 -13.2 0 1 83.50 90.46
  Q 84.36 91.77 81.99 91.65
  Q 80.03 91.56 78.07 91.46
  A 0.55 0.52 89.9 0 1 77.57 90.93
  L 77.30 84.24
  A 1.50 0.97 72.2 0 1 77.54 83.35
  Q 78.68 81.94 79.13 83.82
  Q 79.25 84.35 79.11 85.17
  Q 78.72 87.36 79.40 89.46
  A 0.72 0.71 -7.4 0 0 80.06 89.96
  Z"
/>
<rect fill="#fcbc12" x="-0.96" y="-4.45" transform="translate(85.75,87.25) rotate(-1.2)" width="1.92" height="8.90" rx="0.91"/>
<path fill="#fcbc12" d="
  M 99.57 88.87
  A 1.63 1.62 -8.8 0 0 101.17 90.03
  Q 104.52 89.97 104.23 91.06
  A 0.80 0.60 5.3 0 1 103.49 91.51
  L 98.31 91.45
  A 0.52 0.50 0.5 0 1 97.79 90.94
  L 97.90 83.69
  A 0.66 0.61 -5.6 0 1 98.44 83.08
  Q 99.78 82.82 101.16 82.91
  Q 101.90 82.96 102.82 82.86
  Q 104.68 82.64 104.20 84.04
  A 0.83 0.75 -81.2 0 1 103.51 84.60
  L 100.75 84.79
  A 1.31 0.66 6.2 0 0 99.90 85.11
  Q 98.95 86.21 100.75 86.25
  Q 102.57 86.29 103.45 86.45
  A 0.85 0.64 2.4 0 1 104.13 87.01
  Q 104.17 87.29 104.02 87.56
  A 1.10 0.77 9.1 0 1 103.18 87.97
  L 100.75 88.01
  A 1.33 0.99 15.6 0 0 99.89 88.34
  Q 99.52 88.71 99.57 88.87
  Z"
/>
<path fill="#fcbc12" d="
  M 107.87 89.27
  Q 107.71 89.74 107.71 90.26
  Q 107.72 90.97 107.60 91.23
  Q 107.28 91.99 106.60 91.61
  A 1.25 0.93 -87.1 0 1 106.08 90.83
  Q 105.32 87.20 105.97 83.55
  A 0.74 0.73 -89.9 0 1 106.56 82.95
  Q 107.36 82.80 108.19 82.88
  Q 109.24 82.97 109.82 83.00
  Q 113.38 83.16 112.79 86.70
  A 1.36 0.98 -19.1 0 1 112.26 87.45
  Q 110.92 88.37 111.75 89.56
  Q 112.29 90.33 112.30 90.36
  Q 113.42 92.45 111.13 91.30
  Q 110.74 91.10 110.43 90.63
  Q 109.69 89.53 108.53 89.00
  A 0.49 0.46 21.4 0 0 107.87 89.27
  Z
  M 110.06 84.94
  Q 107.75 84.12 107.78 86.18
  A 0.76 0.72 -80.8 0 0 108.26 86.89
  Q 109.35 87.29 110.44 86.69
  Q 112.22 85.70 110.06 84.94
  Z"
/>
<path fill="#fcbc12" d="
  M 118.18 85.56
  Q 118.41 85.14 119.08 83.82
  Q 119.88 82.26 121.12 83.17
  A 0.62 0.49 -57.2 0 1 121.19 83.90
  L 118.43 88.79
  A 1.56 0.61 73.3 0 0 118.35 89.74
  Q 118.57 91.27 117.30 91.61
  A 0.51 0.45 77.8 0 1 116.73 91.19
  Q 116.02 87.06 113.55 83.65
  A 0.35 0.33 65.5 0 1 113.73 83.11
  Q 115.63 82.73 116.57 85.42
  Q 117.22 87.27 118.18 85.56
  Z"
/>
<path fill="#fcbc12" d="
  M 92.48 88.05
  L 94.39 83.78
  A 1.34 0.94 -82.2 0 1 95.01 83.11
  Q 97.02 82.29 96.14 84.42
  Q 94.87 87.48 93.73 90.59
  A 1.49 1.09 -88.0 0 1 93.14 91.34
  Q 91.67 92.16 90.69 90.56
  Q 90.02 89.48 88.16 83.98
  A 0.75 0.65 64.3 0 1 88.38 83.18
  Q 89.65 82.26 90.25 84.00
  Q 91.14 86.60 91.99 88.07
  Q 92.26 88.55 92.48 88.05
  Z"
/>
<path fill="#ffffff" d="
  M 36.22 85.07
  A 0.29 0.28 53.4 0 1 36.71 85.15
  L 37.93 88.04
  A 0.49 0.46 78.1 0 1 37.52 88.72
  L 35.06 88.73
  A 0.44 0.43 -83.5 0 1 34.65 88.19
  Q 35.01 86.63 36.22 85.07
  Z"
/>
<path fill="#ffffff" d="
  M 64.27 85.01
  Q 66.49 86.38 65.85 88.09
  Q 65.33 89.48 63.73 89.90
  Q 61.27 90.55 61.86 86.14
  Q 62.19 83.72 64.27 85.01
  Z"
/>
<path fill="#ffffff" d="
  M 110.06 84.94
  Q 112.22 85.70 110.44 86.69
  Q 109.35 87.29 108.26 86.89
  A 0.76 0.72 -80.8 0 1 107.78 86.18
  Q 107.75 84.12 110.06 84.94
  Z"
/>
</svg>
